<svg width="64" height="64" viewBox="0 0 64 64" fill="none" xmlns="http://www.w3.org/2000/svg">
  <defs>
    <linearGradient id="g" x1="0" y1="0" x2="64" y2="64" gradientUnits="userSpaceOnUse">
      <stop offset="0" stop-color="#EC4899"/>
      <stop offset="1" stop-color="#8B5CF6"/>
    </linearGradient>
  </defs>
  <path d="M6,12 a6,6 0 0 1 6,-6 h10 a6,6 0 0 1 6,6 v22 a10,10 0 0 1 -20,0 V16 h8 v18 a2,2 0 0 0 4,0 V14 a2,2 0 0 0 -2,-2 H12 a2,2 0 0 0 -2,2 v20 a14,14 0 0 0 28,0 V12 a6,6 0 0 1 6,-6 h10 a6,6 0 0 1 6,6 v22 a22,22 0 0 1 -44,0 z" fill="url(#g)"/>
</svg>

